<?xml version="1.0" standalone="no"?>
<!DOCTYPE svg PUBLIC "-//W3C//DTD SVG 20010904//EN"
 "http://www.w3.org/TR/2001/REC-SVG-20010904/DTD/svg10.dtd">
<svg version="1.0" xmlns="http://www.w3.org/2000/svg"
 width="1200.000000pt" height="628.000000pt" viewBox="0 0 1200.000000 628.000000"
 preserveAspectRatio="xMidYMid meet">

<g transform="translate(0.000000,628.000000) scale(0.100000,-0.100000)"
fill="#000000" stroke="none">
<path d="M5032 5145 c-13 -32 -13 -85 0 -85 4 0 8 5 8 11 0 5 5 7 10 4 18 -11
11 -35 -7 -28 -14 5 -13 0 5 -19 17 -19 42 -29 88 -38 35 -7 76 -22 90 -33 25
-19 26 -23 20 -88 -9 -84 7 -127 58 -158 35 -22 66 -66 66 -94 0 -8 -40 -27
-105 -49 -63 -22 -133 -55 -174 -83 -71 -47 -131 -97 -131 -110 0 -4 -8 -14
-17 -21 -23 -16 -27 -116 -16 -326 4 -80 5 -144 1 -142 -3 2 -9 -13 -13 -35
-8 -46 5 -71 49 -97 66 -39 348 -28 595 22 90 19 289 95 352 135 25 16 51 29
57 29 7 0 12 5 12 10 0 6 6 10 13 10 25 0 98 60 111 91 20 48 9 89 -30 105
-41 17 -41 17 -41 -1 0 -8 4 -12 9 -9 4 3 8 -2 8 -11 0 -14 -3 -14 -32 1 -43
23 -224 30 -336 15 -245 -34 -389 -83 -577 -196 -76 -46 -110 -61 -100 -45 3
6 -1 10 -9 10 -31 0 -15 17 63 68 143 94 338 175 504 207 107 21 131 22 270
15 100 -6 165 -14 190 -24 43 -19 48 -9 11 25 -33 31 -67 97 -116 229 -22 58
-46 115 -54 128 -23 35 -95 76 -139 78 -22 1 -48 5 -57 9 -10 4 -57 1 -105 -6
-49 -7 -106 -13 -128 -13 -38 -1 -40 1 -43 30 -2 20 -20 51 -49 85 -42 49 -45
56 -38 94 19 122 19 130 -11 164 -26 29 -39 34 -124 48 -52 8 -99 19 -104 24
-5 5 -12 28 -15 51 l-6 43 -13 -30z m765 -565 c9 -16 26 -33 37 -39 16 -8 3
-9 -49 -3 -38 4 -133 6 -211 5 -128 -2 -150 -5 -235 -34 -92 -30 -230 -98
-339 -167 l-55 -34 45 46 c24 25 40 46 36 46 -13 0 45 48 78 65 16 8 35 15 42
15 7 0 19 6 26 13 7 7 22 16 33 20 11 3 51 17 88 31 37 14 93 29 125 32 31 4
80 12 107 19 28 7 96 13 153 13 101 0 102 -1 119 -28z m-227 -104 c0 -8 -4
-18 -10 -21 -5 -3 -10 3 -10 14 0 12 5 21 10 21 6 0 10 -6 10 -14z m60 -1 c0
-8 -4 -15 -10 -15 -5 0 -10 7 -10 15 0 8 5 15 10 15 6 0 10 -7 10 -15z m60 6
c0 -6 -4 -13 -10 -16 -5 -3 -10 1 -10 9 0 9 5 16 10 16 6 0 10 -4 10 -9z m50
-6 c0 -8 -4 -15 -10 -15 -5 0 -10 7 -10 15 0 8 5 15 10 15 6 0 10 -7 10 -15z
m-225 -25 c-6 -9 -9 -9 -16 1 -10 17 0 34 13 21 6 -6 7 -16 3 -22z m275 20 c0
-5 -4 -10 -10 -10 -5 0 -10 5 -10 10 0 6 5 10 10 10 6 0 10 -4 10 -10z m27
-12 c-3 -8 -6 -5 -6 6 -1 11 2 17 5 13 3 -3 4 -12 1 -19z m-357 -2 c0 -8 -4
-18 -10 -21 -5 -3 -10 3 -10 14 0 12 5 21 10 21 6 0 10 -6 10 -14z m-60 -22
c0 -8 -4 -14 -10 -14 -5 0 -10 9 -10 21 0 11 5 17 10 14 6 -3 10 -13 10 -21z
m-50 -20 c0 -8 -4 -14 -9 -14 -11 0 -22 26 -14 34 9 9 23 -3 23 -20z m-50 -10
c0 -9 -5 -14 -12 -12 -18 6 -21 28 -4 28 9 0 16 -7 16 -16z m529 1 c6 -7 -29
-10 -107 -11 -196 -3 -377 -46 -544 -130 -39 -20 -69 -30 -73 -24 -3 6 -1 10
5 10 6 0 21 9 33 21 46 43 192 100 327 129 93 20 341 23 359 5z m-579 -20 c0
-8 -4 -15 -10 -15 -5 0 -10 7 -10 15 0 8 5 15 10 15 6 0 10 -7 10 -15z m-40
-21 c0 -8 -4 -14 -10 -14 -5 0 -10 9 -10 21 0 11 5 17 10 14 6 -3 10 -13 10
-21z m-47 -10 c9 -9 -4 -35 -14 -28 -5 3 -9 12 -9 20 0 14 12 19 23 8z m477
-20 c0 -16 -16 -19 -25 -4 -8 13 4 32 16 25 5 -4 9 -13 9 -21z m40 4 c0 -16
-3 -19 -11 -11 -6 6 -8 16 -5 22 11 17 16 13 16 -11z m-90 -3 c0 -8 -4 -15
-10 -15 -5 0 -10 7 -10 15 0 8 5 15 10 15 6 0 10 -7 10 -15z m140 -1 c0 -8 -4
-12 -10 -9 -5 3 -10 10 -10 16 0 5 5 9 10 9 6 0 10 -7 10 -16z m50 0 c0 -8 -4
-12 -10 -9 -5 3 -10 10 -10 16 0 5 5 9 10 9 6 0 10 -7 10 -16z m45 7 c3 -5 1
-12 -5 -16 -5 -3 -10 1 -10 9 0 18 6 21 15 7z m-705 -22 c0 -5 -4 -9 -10 -9
-5 0 -10 7 -10 16 0 8 5 12 10 9 6 -3 10 -10 10 -16z m420 7 c0 -8 -4 -18 -10
-21 -5 -3 -10 -4 -10 -1 0 2 -3 11 -6 20 -4 11 -1 16 10 16 9 0 16 -6 16 -14z
m-60 -11 c0 -8 -4 -15 -9 -15 -13 0 -22 16 -14 24 11 11 23 6 23 -9z m-60 -21
c0 -8 -4 -14 -10 -14 -5 0 -10 9 -10 21 0 11 5 17 10 14 6 -3 10 -13 10 -21z
m-345 7 c3 -5 1 -12 -5 -16 -5 -3 -10 1 -10 9 0 18 6 21 15 7z m292 -27 c-9
-9 -28 6 -21 18 4 6 10 6 17 -1 6 -6 8 -13 4 -17z m-327 -4 c0 -5 -2 -10 -4
-10 -3 0 -8 5 -11 10 -3 6 -1 10 4 10 6 0 11 -4 11 -10z m277 -16 c-9 -9 -28
6 -21 18 4 6 10 6 17 -1 6 -6 8 -13 4 -17z m-307 -5 c0 -6 -4 -7 -10 -4 -5 3
-10 11 -10 16 0 6 5 7 10 4 6 -3 10 -11 10 -16z m843 12 c111 -1 66 -19 -50
-20 -60 -1 -135 -6 -168 -12 -89 -16 -283 -68 -316 -84 -15 -8 -35 -15 -44
-15 -8 0 -15 -5 -15 -11 0 -6 -7 -8 -16 -5 -8 3 -13 2 -10 -3 5 -8 -25 -21
-59 -26 -32 -4 -131 -55 -160 -81 -13 -12 -28 -18 -35 -14 -40 24 323 207 490
247 73 17 214 31 275 27 22 -2 71 -3 108 -3z m-583 -16 c0 -8 -4 -15 -10 -15
-5 0 -10 7 -10 15 0 8 5 15 10 15 6 0 10 -7 10 -15z m-200 -31 c-45 -19 -51
-17 -15 5 17 10 34 16 39 13 5 -2 -6 -11 -24 -18z m160 17 c0 -6 -4 -13 -10
-16 -5 -3 -10 1 -10 9 0 9 5 16 10 16 6 0 10 -4 10 -9z m-50 -26 c0 -8 -4 -15
-10 -15 -5 0 -10 7 -10 15 0 8 5 15 10 15 6 0 10 -7 10 -15z m-40 -25 c0 -5
-4 -10 -10 -10 -5 0 -10 5 -10 10 0 6 5 10 10 10 6 0 10 -4 10 -10z m-50 -26
c0 -8 -5 -12 -10 -9 -6 4 -8 11 -5 16 9 14 15 11 15 -7z m-30 -25 c0 -6 -4 -7
-10 -4 -5 3 -10 11 -10 16 0 6 5 7 10 4 6 -3 10 -11 10 -16z m-30 -20 c0 -6
-4 -7 -10 -4 -5 3 -10 11 -10 16 0 6 5 7 10 4 6 -3 10 -11 10 -16z m935 -145
c-33 -26 -168 -91 -246 -120 -138 -49 -295 -79 -459 -88 -84 -4 -88 -4 -35 4
33 5 77 11 97 12 20 1 35 5 33 8 -2 3 14 5 36 4 21 -1 39 2 39 7 0 5 -10 10
-22 10 -19 1 -20 2 -4 6 10 3 30 -1 43 -8 19 -10 28 -10 43 -1 11 7 31 12 44
12 14 0 28 5 31 11 4 6 13 8 20 5 18 -6 95 14 95 26 0 5 4 7 9 3 10 -6 81 24
92 38 15 20 142 75 199 85 3 1 -4 -6 -15 -14z m-455 -144 c-14 -4 -34 -8 -45
-8 -16 0 -15 2 5 8 14 4 34 8 45 8 16 0 15 -2 -5 -8z"/>
<path d="M5185 4100 c-3 -6 1 -7 9 -4 18 7 21 14 7 14 -6 0 -13 -4 -16 -10z"/>
<path d="M3972 4625 c-23 -49 -45 -251 -38 -342 7 -89 35 -188 69 -245 12 -20
60 -92 106 -159 88 -132 184 -319 221 -434 13 -38 37 -106 55 -150 18 -44 38
-111 45 -150 8 -38 17 -74 22 -80 15 -17 8 -41 -47 -153 -58 -117 -122 -298
-154 -437 -71 -302 -75 -622 -11 -828 l18 -58 -132 -162 c-85 -105 -147 -191
-172 -242 -23 -44 -57 -109 -77 -145 l-36 -65 37 3 c55 4 68 -8 48 -46 -11
-22 -21 -29 -33 -25 -13 5 -15 2 -9 -21 4 -15 3 -32 -1 -38 -10 -17 -10 -59 0
-65 5 -3 19 4 31 16 12 12 27 21 33 21 5 0 18 9 28 20 10 11 23 19 29 17 6 -2
17 2 24 10 7 7 23 13 34 13 18 0 19 2 7 17 -13 15 -11 16 14 11 16 -3 30 0 35
7 4 7 23 17 42 24 20 6 40 21 45 33 6 13 19 25 30 27 20 3 20 3 1 -18 -18 -20
-18 -21 -1 -21 13 0 15 -3 7 -12 -5 -7 -13 -29 -17 -48 -3 -19 -9 -43 -11 -52
-4 -12 0 -18 10 -18 9 0 23 -17 32 -37 9 -21 20 -46 25 -55 15 -30 10 -46 -20
-59 -20 -9 -26 -16 -18 -21 9 -6 8 -10 -3 -18 -8 -5 -10 -10 -4 -10 6 0 38
-16 70 -35 41 -25 70 -35 99 -35 23 0 45 -4 51 -9 5 -6 40 -16 78 -23 63 -12
71 -16 94 -51 29 -44 41 -43 18 2 -22 41 -20 51 4 21 11 -14 20 -20 20 -15 0
16 90 5 90 -11 0 -18 20 -18 34 0 8 10 49 15 155 19 135 5 144 4 148 -14 5
-18 16 -19 164 -19 133 0 161 3 165 15 5 12 29 15 126 15 l119 0 26 -30 c27
-33 56 -38 80 -15 13 14 4 26 -89 114 -56 54 -146 136 -198 182 -131 116 -122
106 -104 113 24 9 31 7 14 -4 -13 -8 -13 -10 2 -10 29 0 48 12 48 30 0 29 -27
43 -94 49 -4 1 -5 8 -2 16 8 21 -22 31 -46 16 -11 -7 -23 -10 -26 -7 -3 3 0 6
8 6 8 0 9 4 3 13 -14 17 -21 63 -12 78 10 17 39 3 39 -18 0 -21 93 -68 115
-59 8 3 17 1 20 -4 4 -6 14 -10 24 -10 12 0 22 -12 29 -32 5 -18 10 -25 11
-15 1 15 3 15 21 -3 11 -11 20 -27 20 -36 0 -11 6 -15 19 -11 14 3 18 1 14
-10 -5 -12 -1 -12 22 3 27 18 28 18 21 -4 -8 -23 3 -29 20 -12 8 8 27 0 64
-25 63 -42 234 -128 345 -172 44 -18 115 -52 157 -76 47 -27 81 -41 89 -36 7
4 16 6 19 4 11 -7 220 34 295 57 77 23 104 38 153 83 78 71 92 118 114 403 15
194 6 257 -58 385 -29 58 -53 125 -65 181 -32 149 -69 203 -174 253 -38 17
-60 22 -91 17 -40 -6 -43 -5 -73 39 -17 25 -45 57 -63 72 -31 26 -35 27 -110
20 -73 -6 -79 -5 -102 18 -14 14 -28 41 -31 60 -8 41 -29 64 -65 69 -22 3 -25
9 -28 45 -3 35 2 50 27 80 16 21 45 65 63 97 25 46 40 62 63 68 24 6 36 19 57
61 15 30 47 79 72 110 51 63 62 91 47 129 -8 22 -17 27 -53 30 -41 3 -43 4
-41 33 22 268 13 351 -53 490 -62 131 -183 231 -344 285 -117 39 -287 22 -442
-45 -158 -68 -243 -156 -295 -307 -25 -76 -28 -95 -28 -223 0 -77 2 -160 5
-184 5 -42 3 -45 -23 -52 -74 -20 -76 -65 -9 -169 27 -41 56 -93 64 -115 12
-30 22 -41 41 -43 33 -4 46 -21 97 -117 23 -44 48 -91 56 -105 15 -26 35 -76
40 -97 5 -26 -41 -11 -105 34 -177 125 -248 190 -309 281 -106 160 -220 487
-238 688 -4 44 0 107 10 174 58 373 52 413 -82 588 -96 126 -164 180 -300 241
-229 102 -323 213 -355 421 -12 73 -12 73 -25 45z m1445 -1915 c62 -30 112
-59 112 -63 1 -14 -68 -38 -93 -31 -36 9 -104 71 -127 116 -11 22 -17 38 -12
36 4 -2 58 -28 120 -58z m613 43 c-2 -20 -39 -73 -71 -101 -54 -47 -82 -55
-129 -36 -22 9 -40 19 -39 23 0 5 215 117 232 120 4 0 7 -2 7 -6z m-413 -538
c39 -28 34 -49 -26 -113 -31 -33 -70 -77 -88 -98 -30 -37 -33 -38 -51 -21 -27
25 -39 21 -14 -5 l21 -23 -112 -115 c-62 -64 -131 -138 -155 -165 -40 -45 -44
-48 -59 -32 -16 16 -16 17 10 17 20 0 32 8 46 31 10 17 28 37 40 45 13 10 21
26 21 44 0 24 -6 30 -35 40 -19 6 -35 15 -35 18 0 4 22 29 50 57 27 27 67 69
88 93 36 40 40 42 67 32 29 -11 29 -11 11 9 -18 20 -17 22 64 111 87 95 111
107 157 75z m-585 -577 c-19 -19 -14 -65 8 -81 19 -13 18 -15 -26 -68 -26 -30
-54 -57 -63 -61 -26 -11 -51 -9 -51 4 0 6 -10 22 -22 35 -19 20 -20 25 -8 34
8 5 34 6 58 3 33 -5 47 -2 62 11 19 17 28 65 13 65 -5 0 -15 4 -23 10 -11 7
-8 14 20 39 32 28 58 35 32 9z m63 4 c-3 -3 -11 0 -18 7 -9 10 -8 11 6 5 10
-3 15 -9 12 -12z m-336 -268 c-19 -24 -12 -96 12 -114 19 -15 19 -16 -9 -43
l-28 -27 -34 35 c-19 19 -41 35 -49 35 -9 0 13 28 49 65 61 61 88 84 59 49z
m-79 -162 l42 -37 -57 -65 c-78 -89 -187 -200 -195 -200 -10 0 -30 72 -30 107
0 24 17 48 78 113 42 45 84 91 92 101 8 10 18 19 21 19 4 0 25 -17 49 -38z
m570 -228 c0 -8 -5 -12 -10 -9 -6 4 -8 11 -5 16 9 14 15 11 15 -7z m-1065 -24
c-3 -5 -14 -10 -23 -9 -14 0 -13 2 3 9 27 11 27 11 20 0z m1380 -40 c10 -11
15 -20 11 -20 -4 0 -16 9 -28 20 -12 11 -17 20 -11 20 5 0 18 -9 28 -20z
m-269 -11 c8 -14 -10 -11 -32 6 -18 13 -18 14 4 8 12 -3 25 -9 28 -14z m319
-29 c3 -5 2 -10 -4 -10 -5 0 -13 5 -16 10 -3 6 -2 10 4 10 5 0 13 -4 16 -10z
m145 -420 c0 -5 -4 -10 -10 -10 -5 0 -10 5 -10 10 0 6 5 10 10 10 6 0 10 -4
10 -10z"/>
<path d="M5938 4183 c6 -2 18 -2 25 0 6 3 1 5 -13 5 -14 0 -19 -2 -12 -5z"/>
<path d="M5988 4173 c7 -3 16 -2 19 1 4 3 -2 6 -13 5 -11 0 -14 -3 -6 -6z"/>
<path d="M3796 899 c-15 -28 -26 -52 -24 -55 2 -2 17 19 32 47 15 28 26 53 24
55 -2 1 -16 -20 -32 -47z"/>
<path d="M3741 797 c-13 -21 -12 -21 5 -5 10 10 16 20 13 22 -3 3 -11 -5 -18
-17z"/>
<path d="M5450 806 c0 -16 27 -29 41 -20 13 8 -9 34 -27 34 -8 0 -14 -6 -14
-14z"/>
<path d="M5803 431 c1 -11 6 -17 14 -14 10 4 11 9 2 19 -15 19 -18 18 -16 -5z"/>
</g>
</svg>
